<svg width="694" height="530" viewBox="0 0 694 530" fill="none" xmlns="http://www.w3.org/2000/svg">
<g clip-path="url(#clip0)">
<path d="M196.352 270.018C196.283 268.984 196.014 267.973 195.56 267.044C195.106 266.115 194.477 265.286 193.707 264.604L181.337 253.663C179.884 252.376 178.012 251.682 176.083 251.718C174.155 251.753 172.308 252.515 170.902 253.855C170.713 254.031 170.535 254.22 170.369 254.419L138.073 292.002L134.539 296.108L80.5057 358.991C79.1543 360.573 78.4751 362.633 78.6168 364.722C78.7584 366.81 79.7094 368.757 81.2616 370.135L93.6198 381.076C95.1759 382.451 97.2054 383.143 99.2636 383.002C101.322 382.86 103.241 381.896 104.6 380.321L134.539 345.478L161.523 314.065L194.451 275.748C195.124 274.967 195.639 274.059 195.965 273.076C196.291 272.092 196.422 271.053 196.352 270.018V270.018Z" fill="#FFC300"/>
<path d="M392.236 199.127L384.723 184.328C383.773 182.471 382.138 181.071 380.174 180.435C378.21 179.799 376.077 179.978 374.243 180.933L313.042 212.955L274.567 233.089L252.73 244.515C252.159 244.813 251.628 245.184 251.152 245.621C250.092 246.556 249.308 247.77 248.885 249.129C248.57 250.116 248.452 251.157 248.538 252.191C248.624 253.225 248.912 254.232 249.384 255.152L252.319 260.938L256.897 269.951C257.364 270.873 258.006 271.693 258.786 272.363C259.566 273.032 260.469 273.539 261.443 273.853C262.216 274.099 263.021 274.224 263.832 274.226C265.066 274.226 266.283 273.925 267.377 273.346L293.316 259.777L327.234 242.022L388.891 209.763C390.72 208.799 392.099 207.139 392.726 205.145C393.353 203.152 393.176 200.988 392.236 199.126V199.127Z" fill="#FFC300"/>
<path d="M327.567 242.733L327.234 242.023L314.097 214.557C313.169 212.69 311.551 211.272 309.597 210.609C308.62 210.278 307.588 210.149 306.561 210.228C305.535 210.308 304.534 210.594 303.618 211.072L271.567 230.788L250.229 243.918C250.067 244.001 249.917 244.107 249.785 244.233C248.562 245.35 247.906 248.215 247.373 250.561C247.184 251.373 247.029 252.084 246.873 252.546C246.818 252.738 246.751 252.941 246.706 253.144C246.262 254.967 246.474 256.892 247.306 258.57L249.929 263.882L254.663 273.447C255.315 274.759 256.312 275.862 257.544 276.632C258.776 277.403 260.195 277.812 261.643 277.812C262.832 277.811 264.005 277.525 265.066 276.978L294.916 265.022L324.099 253.325C325.941 252.384 327.339 250.741 327.989 248.756C328.639 246.771 328.487 244.605 327.567 242.733H327.567Z" fill="#2F2E41"/>
<path d="M221.692 200.274C254.541 200.274 281.17 173.246 281.17 139.907C281.17 106.567 254.541 79.5395 221.692 79.5395C188.844 79.5395 162.215 106.567 162.215 139.907C162.215 173.246 188.844 200.274 221.692 200.274Z" fill="#FFC300"/>
<path d="M223.413 380.772C223.355 379.238 222.856 377.755 221.977 376.506C221.098 375.258 219.878 374.297 218.467 373.745C217.572 373.386 216.618 373.202 215.656 373.203H199.252C197.19 373.206 195.212 374.038 193.754 375.519C192.295 376.999 191.475 379.006 191.473 381.099V522.104C191.475 524.198 192.295 526.205 193.754 527.685C195.212 529.165 197.19 529.998 199.252 530H215.656C217.718 529.998 219.696 529.165 221.154 527.685C222.613 526.205 223.433 524.198 223.435 522.104V381.099C223.439 380.99 223.432 380.88 223.413 380.772V380.772Z" fill="#FFC300"/>
<path d="M297.939 443.734C297.714 443.196 297.431 442.686 297.094 442.211L269.133 402.508L246.095 369.808H206.798L209.577 373.745L214.522 380.772L229.847 402.519L262.687 449.137L271.1 461.071C272.299 462.773 274.115 463.923 276.149 464.268C278.182 464.613 280.268 464.124 281.947 462.909L295.294 453.22C296.728 452.177 297.771 450.67 298.252 448.947C298.732 447.224 298.622 445.386 297.939 443.734ZM217.589 329.337C216.387 327.636 214.568 326.488 212.533 326.145C210.497 325.803 208.411 326.293 206.731 327.51L193.385 337.188C191.708 338.409 190.577 340.254 190.239 342.32C189.902 344.386 190.385 346.503 191.584 348.208L196.474 355.145H235.771L217.589 329.337Z" fill="#FFC300"/>
<path d="M298.194 444.118C298.116 443.986 298.03 443.858 297.939 443.734C296.907 442.312 295.549 441.166 293.983 440.395L279.301 432.985C275.456 431.045 271.322 431.519 270.089 434.045L262.687 449.137L232.248 511.197C231.003 513.724 233.126 517.356 236.96 519.296L251.641 526.718C253.098 527.473 254.706 527.882 256.342 527.913C258.409 527.913 260.131 527.135 260.854 525.657L298.695 448.505C298.993 447.793 299.103 447.014 299.016 446.244C298.928 445.475 298.645 444.742 298.194 444.118V444.118Z" fill="#FFC300"/>
<path d="M210.277 251.464L207.81 249.005L206.443 247.617L198.597 239.778C197.277 238.461 195.541 237.662 193.695 237.522C193.484 237.511 193.284 237.499 193.073 237.499C192.606 237.511 191.895 237.443 191.061 237.375C188.428 237.15 185.138 236.856 183.993 238.052L168.802 251.385L136.695 279.549C135.53 280.743 134.774 282.285 134.539 283.948C134.476 284.348 134.446 284.751 134.45 285.155C134.452 285.514 134.481 285.873 134.539 286.227C134.775 287.936 135.56 289.518 136.773 290.727L138.073 292.002L159.033 312.395C160.503 313.861 162.485 314.676 164.545 314.663C165.445 314.662 166.337 314.498 167.179 314.178C168.265 313.771 169.248 313.123 170.057 312.283L206.587 267.266L208.976 264.322L210.355 262.63C211.801 261.138 212.606 259.124 212.591 257.03C212.576 254.937 211.744 252.935 210.277 251.464V251.464Z" fill="#2F2E41"/>
<path d="M213.775 162.281L213.713 160.025C217.848 159.908 221.493 159.645 224.233 157.613C225.009 157.005 225.648 156.234 226.104 155.352C226.561 154.471 226.825 153.5 226.879 152.506C226.927 151.898 226.837 151.288 226.615 150.721C226.392 150.155 226.044 149.648 225.598 149.241C223.78 147.682 220.854 148.187 218.721 149.179L216.882 150.035L220.409 123.877L222.611 124.184L219.611 146.434C222.509 145.57 225.194 145.942 227.033 147.518C227.739 148.144 228.293 148.927 228.652 149.806C229.01 150.685 229.164 151.636 229.1 152.585C229.035 153.921 228.683 155.226 228.069 156.41C227.455 157.593 226.593 158.626 225.544 159.435C222.024 162.046 217.45 162.176 213.775 162.281Z" fill="#2F2E41"/>
<path d="M245.472 126.102H233.501V128.358H245.472V126.102Z" fill="#2F2E41"/>
<path d="M207.686 126.102H195.716V128.358H207.686V126.102Z" fill="#2F2E41"/>
<path d="M216.186 49.4699C209.59 22.6368 184.024 2.03376 156.63 2.54635C143.068 2.93256 129.99 7.74558 119.336 16.2714C113.965 20.514 109.341 25.649 105.66 31.4587C101.531 37.9986 98.9385 45.3811 96.9145 52.8323C92.8249 67.888 90.8974 84.9246 80.5192 97.2197C76.2158 102.197 70.9099 106.178 64.96 108.895C59.0101 111.612 52.5549 113 46.0307 112.967C39.4576 112.863 32.9975 111.216 27.1564 108.155C21.3152 105.094 16.2517 100.702 12.3625 95.3223C4.55051 84.7515 0.704523 70.1319 5.21766 57.3742C7.43233 51.1138 12.1945 45.2001 19.0054 44.1564C22.1115 43.7296 25.2727 44.2341 28.1 45.6076C30.9272 46.9811 33.2971 49.1637 34.9177 51.8868C37.9807 57.3415 37.0011 64.6201 33.1638 69.4315C29.122 74.4993 22.3676 75.9025 16.4104 73.8664C13.6103 72.9004 11.1482 71.1275 9.3247 68.7643C7.99255 67.0569 5.6314 69.4507 6.94987 71.1405C9.06286 73.7125 11.791 75.6907 14.8731 76.8859C17.9553 78.081 21.2881 78.4531 24.5524 77.9663C27.8099 77.4662 30.8695 76.0678 33.3976 73.9237C35.9257 71.7796 37.8253 68.9721 38.8891 65.8075C40.0553 62.6697 40.3612 59.2698 39.7743 55.9695C39.1874 52.6693 37.7296 49.5924 35.5562 47.0665C33.2915 44.5671 30.4327 42.6994 27.2533 41.6422C24.0739 40.585 20.6804 40.3738 17.3976 41.0286C10.3649 42.5398 5.2577 48.4104 2.60715 54.9155C-0.00457961 61.6736 -0.693628 69.0404 0.618508 76.1765C1.82937 83.0628 4.45562 89.613 8.32627 95.4007C12.1969 101.188 17.2252 106.084 23.0837 109.768C34.9401 117.157 49.7389 118.174 62.7459 113.427C69.2449 111.094 75.1807 107.384 80.159 102.545C85.5088 97.0362 89.6032 90.404 92.1537 83.1154C98.018 67.5313 98.8772 50.0929 107.175 35.4441C114.412 23.0059 125.829 13.6357 139.327 9.05484C152.746 4.34928 167.434 5.06494 180.347 11.0534C193.188 17.089 203.53 27.5116 209.568 40.5004C211.006 43.6652 212.144 46.962 212.965 50.346C213.486 52.4629 216.705 51.5846 216.186 49.4699L216.186 49.4699Z" fill="#2F2E41"/>
<path d="M280.469 267.277C280.013 265.495 279.479 263.747 278.868 262.032C275.168 251.549 268.679 242.312 260.12 235.345C259.153 234.544 258.153 233.777 257.119 233.044C251.99 229.373 246.319 226.553 240.317 224.691C240.798 222.949 240.789 221.106 240.293 219.369C239.622 217.181 238.271 215.271 236.444 213.924C234.616 212.577 232.409 211.865 230.15 211.895H215.658C213.394 211.865 211.181 212.577 209.349 213.926C207.516 215.274 206.161 217.188 205.486 219.381C204.992 221.113 204.983 222.95 205.463 224.686C193.297 228.477 182.65 236.128 175.085 246.514C167.521 256.901 163.437 269.476 163.434 282.392V399.329C163.434 407.311 166.423 413.798 170.102 413.798H275.679C275.723 413.798 305.763 413.798 305.807 413.774C309.43 413.654 312.353 407.215 312.353 399.329C312.353 372.333 306.476 334.39 295.143 309.967L282.347 282.392C282.349 277.294 281.718 272.215 280.469 267.277V267.277Z" fill="#2F2E41"/>
<path d="M161.767 153.805C154.413 153.805 148.431 144.698 148.431 133.502C148.431 122.307 154.413 113.199 161.767 113.199C169.12 113.199 175.103 122.307 175.103 133.502C175.103 144.698 169.12 153.805 161.767 153.805Z" fill="#3F3D56"/>
<path d="M280.68 153.805C273.326 153.805 267.344 144.698 267.344 133.502C267.344 122.307 273.326 113.199 280.68 113.199C288.033 113.199 294.016 122.307 294.016 133.502C294.016 144.698 288.033 153.805 280.68 153.805Z" fill="#3F3D56"/>
<path d="M284.422 150.63C284.158 150.63 283.897 150.565 283.662 150.443C283.426 150.32 283.223 150.142 283.069 149.924C282.914 149.706 282.813 149.453 282.774 149.188C282.735 148.922 282.758 148.651 282.843 148.396C286.029 138.78 286.987 128.548 285.643 118.495C284.3 108.442 280.69 98.839 275.095 90.432C269.5 82.0249 262.071 75.0406 253.384 70.0216C244.697 65.0027 234.987 62.0843 225.008 61.4934C215.03 60.9025 205.051 62.6549 195.848 66.6145C186.645 70.5741 178.466 76.6342 171.946 84.3237C165.425 92.0133 160.74 101.125 158.253 110.952C155.767 120.778 155.547 131.054 157.609 140.98C157.699 141.419 157.614 141.876 157.373 142.251C157.131 142.626 156.753 142.889 156.321 142.981C155.889 143.074 155.439 142.989 155.069 142.744C154.698 142.5 154.439 142.117 154.347 141.679C152.177 131.242 152.407 120.438 155.021 110.106C157.634 99.7745 162.56 90.1937 169.415 82.1085C176.27 74.0232 184.869 67.6512 194.545 63.488C204.221 59.3247 214.713 57.4822 225.205 58.1038C235.697 58.7253 245.906 61.7941 255.039 67.0716C264.172 72.3491 271.983 79.6933 277.865 88.5331C283.746 97.3729 287.54 107.47 288.951 118.04C290.363 128.61 289.353 139.368 286.002 149.478C285.89 149.814 285.678 150.105 285.395 150.312C285.111 150.518 284.771 150.63 284.422 150.63V150.63Z" fill="#3F3D56"/>
<path d="M196.259 92.8984C193.904 96.1613 195.065 100.559 197.547 103.372C200.776 107.032 205.925 107.263 210.396 106.584C215.413 105.822 220.734 103.436 225.813 105.044C230.142 106.414 233.23 110.399 237.728 111.4C241.716 112.288 246.486 111.113 247.884 106.798C248.556 104.724 245.338 103.836 244.669 105.898C243.765 108.69 239.859 108.634 237.622 107.861C234.036 106.622 231.272 103.607 227.747 102.168C223.592 100.47 219.083 101.237 214.852 102.204C210.864 103.115 206.275 104.466 202.302 102.764C199.363 101.504 197.024 97.5357 199.138 94.6063C200.407 92.8477 197.516 91.1577 196.259 92.8984H196.259Z" fill="#2F2E41"/>
<path d="M356.229 529.977H116.18C115.885 529.977 115.603 529.859 115.394 529.647C115.186 529.436 115.069 529.149 115.069 528.849C115.069 528.55 115.186 528.263 115.394 528.052C115.603 527.84 115.885 527.722 116.18 527.722H356.229C356.524 527.722 356.806 527.84 357.015 528.052C357.223 528.263 357.34 528.55 357.34 528.849C357.34 529.149 357.223 529.436 357.015 529.647C356.806 529.859 356.524 529.977 356.229 529.977Z" fill="#3F3D56"/>
</g>
<defs>
<clipPath id="clip0">
<rect width="694" height="530" fill="white"/>
</clipPath>
</defs>
</svg>
